<svg xmlns="http://www.w3.org/2000/svg" width="1024" height="1024" viewBox="0 0 1024 1024" role="img" aria-labelledby="title desc">
<title id="title">Open Volar S — unlocked ruby tuner</title>
<desc id="desc">Translucent red USB TV tuner with vertical satin metal reflections and a white etched open padlock mapped to its surface. Python-generated editable vector paths.</desc>
<defs><filter id="shadow0" x="-50%" y="-100%" width="200%" height="300%" color-interpolation-filters="sRGB"><feGaussianBlur stdDeviation="32.0"/></filter><linearGradient id="gradient1" gradientUnits="userSpaceOnUse" x1="380" y1="848" x2="542.7369392085114" y2="1230.1228129516312"><stop stop-color="#91A4BC"/><stop offset="1" stop-color="#455C79"/></linearGradient><linearGradient id="gradient2" gradientUnits="userSpaceOnUse" x1="372" y1="830" x2="532.344827586207" y2="1204.1379310344828"><stop stop-color="#D9E4EF"/><stop offset="1" stop-color="#667B94"/></linearGradient><linearGradient id="metal3" gradientUnits="userSpaceOnUse" x1="380" y1="0" x2="679" y2="0"><stop offset="0.000000" stop-color="#8495a9"/><stop offset="0.010033" stop-color="#90a0b2"/><stop offset="0.020067" stop-color="#9cabbb"/><stop offset="0.030100" stop-color="#abb8c6"/><stop offset="0.040134" stop-color="#b8c3cf"/><stop offset="0.050167" stop-color="#c4ced8"/><stop offset="0.060201" stop-color="#d1dae2"/><stop offset="0.073579" stop-color="#e2e8ee"/><stop offset="0.083612" stop-color="#eff4f8"/><stop offset="0.093645" stop-color="#f6fafe"/><stop offset="0.103679" stop-color="#f4f9fd"/><stop offset="0.113712" stop-color="#f2f8fc"/><stop offset="0.123746" stop-color="#eef4f9"/><stop offset="0.133779" stop-color="#ecf2f8"/><stop offset="0.147157" stop-color="#e8eff6"/><stop offset="0.157191" stop-color="#e5edf5"/><stop offset="0.167224" stop-color="#e3ecf4"/><stop offset="0.177258" stop-color="#e0e9f2"/><stop offset="0.187291" stop-color="#dee8f2"/><stop offset="0.197324" stop-color="#dae5ef"/><stop offset="0.207358" stop-color="#d7e2ed"/><stop offset="0.220736" stop-color="#d4e0ec"/><stop offset="0.230769" stop-color="#d0dde9"/><stop offset="0.240803" stop-color="#cfdbe8"/><stop offset="0.250836" stop-color="#ccd9e6"/><stop offset="0.260870" stop-color="#c8d6e3"/><stop offset="0.270903" stop-color="#c5d3e1"/><stop offset="0.280936" stop-color="#c1cfde"/><stop offset="0.294314" stop-color="#becddc"/><stop offset="0.304348" stop-color="#bbc9d9"/><stop offset="0.314381" stop-color="#b8c7d8"/><stop offset="0.324415" stop-color="#b6c5d6"/><stop offset="0.334448" stop-color="#b2c1d3"/><stop offset="0.344482" stop-color="#afbfd1"/><stop offset="0.357860" stop-color="#abbbcd"/><stop offset="0.367893" stop-color="#a8b8cb"/><stop offset="0.377926" stop-color="#a5b6c9"/><stop offset="0.387960" stop-color="#a2b3c7"/><stop offset="0.397993" stop-color="#a0b2c6"/><stop offset="0.408027" stop-color="#9caec3"/><stop offset="0.418060" stop-color="#98abc0"/><stop offset="0.431438" stop-color="#95a8bd"/><stop offset="0.441472" stop-color="#92a5bb"/><stop offset="0.451505" stop-color="#97aabf"/><stop offset="0.461538" stop-color="#9badc2"/><stop offset="0.471572" stop-color="#9fb1c5"/><stop offset="0.481605" stop-color="#a3b4c8"/><stop offset="0.491639" stop-color="#a6b7c9"/><stop offset="0.505017" stop-color="#adbdce"/><stop offset="0.515050" stop-color="#b0bfd0"/><stop offset="0.525084" stop-color="#b5c4d4"/><stop offset="0.535117" stop-color="#b9c8d7"/><stop offset="0.545151" stop-color="#bccad9"/><stop offset="0.555184" stop-color="#c1cedc"/><stop offset="0.565217" stop-color="#c4d1de"/><stop offset="0.578595" stop-color="#cad6e2"/><stop offset="0.588629" stop-color="#cedae5"/><stop offset="0.598662" stop-color="#d2dde8"/><stop offset="0.608696" stop-color="#d7e2ec"/><stop offset="0.618729" stop-color="#dae4ee"/><stop offset="0.628763" stop-color="#dde7f0"/><stop offset="0.638796" stop-color="#e2ecf4"/><stop offset="0.652174" stop-color="#e6eff6"/><stop offset="0.662207" stop-color="#ecf4fb"/><stop offset="0.672241" stop-color="#eef6fc"/><stop offset="0.682274" stop-color="#ecf4fb"/><stop offset="0.692308" stop-color="#e9f2fa"/><stop offset="0.702341" stop-color="#e5eef7"/><stop offset="0.715719" stop-color="#e2edf6"/><stop offset="0.725753" stop-color="#dee9f4"/><stop offset="0.735786" stop-color="#dce8f3"/><stop offset="0.745819" stop-color="#dae7f3"/><stop offset="0.755853" stop-color="#d7e4f1"/><stop offset="0.765886" stop-color="#d4e2f0"/><stop offset="0.775920" stop-color="#d1dfed"/><stop offset="0.789298" stop-color="#cddcec"/><stop offset="0.799331" stop-color="#cbdaea"/><stop offset="0.809365" stop-color="#c8d8e9"/><stop offset="0.819398" stop-color="#c6d7e9"/><stop offset="0.829431" stop-color="#c3d4e7"/><stop offset="0.839465" stop-color="#c1d0e3"/><stop offset="0.849498" stop-color="#c0cddf"/><stop offset="0.862876" stop-color="#bec8d9"/><stop offset="0.872910" stop-color="#bec5d7"/><stop offset="0.882943" stop-color="#bdc2d3"/><stop offset="0.892977" stop-color="#bcbfd0"/><stop offset="0.903010" stop-color="#bbbccc"/><stop offset="0.913043" stop-color="#b9b7c7"/><stop offset="0.923077" stop-color="#b9b4c4"/><stop offset="0.936455" stop-color="#b6afbe"/><stop offset="0.946488" stop-color="#b6acbb"/><stop offset="0.956522" stop-color="#b6aab8"/><stop offset="0.966555" stop-color="#b4a6b4"/><stop offset="0.976589" stop-color="#b3a3b1"/><stop offset="0.986622" stop-color="#b19eac"/><stop offset="1.000000" stop-color="#b09aa7"/></linearGradient><linearGradient id="gradient4" gradientUnits="userSpaceOnUse" x1="378" y1="853" x2="436.5188916876574" y2="862.3098236775819"><stop stop-color="#8396AC"/><stop offset="1" stop-color="#40546E"/></linearGradient><linearGradient id="gradient5" gradientUnits="userSpaceOnUse" x1="396" y1="847" x2="415.9486722882732" y2="848.0118891740428"><stop stop-color="#F9FDFF"/><stop offset="1" stop-color="#D8E4EF"/></linearGradient><linearGradient id="gradient6" gradientUnits="userSpaceOnUse" x1="400" y1="839" x2="400.05647662548483" y2="846.1424105696456"><stop stop-color="#FFFFFF"/><stop offset="1" stop-color="#F1F7FC"/></linearGradient><linearGradient id="gradient7" gradientUnits="userSpaceOnUse" x1="400" y1="1125" x2="400.1102807022286" y2="1134.9987836687253"><stop stop-color="#849AB3"/><stop offset="1" stop-color="#59738F"/></linearGradient><linearGradient id="gradient8" gradientUnits="userSpaceOnUse" x1="496" y1="889" x2="523.5862068965517" y2="957.9655172413793"><stop stop-color="#172D47"/><stop offset="1" stop-color="#49617A"/></linearGradient><linearGradient id="gradient9" gradientUnits="userSpaceOnUse" x1="502" y1="897" x2="503.5286221871299" y2="912.5641531780498"><stop stop-color="#102239"/><stop offset="1" stop-color="#1D334D"/></linearGradient><linearGradient id="gradient10" gradientUnits="userSpaceOnUse" x1="502" y1="940" x2="502.31824329700055" y2="947.1286498528125"><stop stop-color="#AFC2D4"/><stop offset="1" stop-color="#7891AA"/></linearGradient><linearGradient id="gradient11" gradientUnits="userSpaceOnUse" x1="496" y1="1028" x2="523.5862068965517" y2="1096.9655172413793"><stop stop-color="#172D47"/><stop offset="1" stop-color="#49617A"/></linearGradient><linearGradient id="gradient12" gradientUnits="userSpaceOnUse" x1="502" y1="1036" x2="503.81588902900376" y2="1052.9482976040354"><stop stop-color="#102239"/><stop offset="1" stop-color="#1D334D"/></linearGradient><linearGradient id="gradient13" gradientUnits="userSpaceOnUse" x1="502" y1="1080" x2="502.20382165605093" y2="1085.7070063694268"><stop stop-color="#AFC2D4"/><stop offset="1" stop-color="#7891AA"/></linearGradient><linearGradient id="gradient14" gradientUnits="userSpaceOnUse" x1="616" y1="814" x2="852.5158314694459" y2="989.4500869282016"><stop stop-color="#B9435A"/><stop offset="1" stop-color="#4C0C25"/></linearGradient><linearGradient id="gradient15" gradientUnits="userSpaceOnUse" x1="650" y1="758" x2="780.0239840833074" y2="1441.8492603736313"><stop stop-color="#991A39"/><stop offset="1" stop-color="#360719"/></linearGradient><linearGradient id="gradient16" gradientUnits="userSpaceOnUse" x1="650" y1="758" x2="759.7297343846365" y2="1384.4952828951734"><stop stop-color="#E26479"/><stop offset="1" stop-color="#78122F"/></linearGradient><linearGradient id="gradient17" gradientUnits="userSpaceOnUse" x1="662" y1="770" x2="761.8446570741487" y2="1361.7241257273881"><stop stop-color="#BC2344"/><stop offset="1" stop-color="#520B23"/></linearGradient><linearGradient id="gradient18" gradientUnits="userSpaceOnUse" x1="742" y1="838" x2="794.7519375583182" y2="1236.735302670856"><stop stop-color="#6D0B29"/><stop offset="1" stop-color="#35071A"/></linearGradient><linearGradient id="gradient19" gradientUnits="userSpaceOnUse" x1="700" y1="788" x2="700.629337282488" y2="833.7056201406887"><stop stop-color="#FFE0DE"/><stop offset="1" stop-color="#BD5B70"/></linearGradient><linearGradient id="gradient20" gradientUnits="userSpaceOnUse" x1="738" y1="1152" x2="738.1290268875385" y2="1171.9991675684676"><stop stop-color="#DB607A"/><stop offset="1" stop-color="#8B213E"/></linearGradient><linearGradient id="gradient21" gradientUnits="userSpaceOnUse" x1="683" y1="826" x2="693.4214426060853" y2="998.2265404790784"><stop stop-color="#FFB0BC"/><stop offset="1" stop-color="#CF516D"/></linearGradient><linearGradient id="gradient22" gradientUnits="userSpaceOnUse" x1="1063" y1="818" x2="1210.182935366314" y2="1170.9006933035987"><stop stop-color="#FAF5F3"/><stop offset="1" stop-color="#FAF5F3"/></linearGradient><linearGradient id="gradient23" gradientUnits="userSpaceOnUse" x1="1063" y1="818" x2="1210.5478674494846" y2="1167.0600012346601"><stop stop-color="#743447"/><stop offset="1" stop-color="#743447"/></linearGradient><linearGradient id="gradient24" gradientUnits="userSpaceOnUse" x1="1066" y1="820" x2="1212.4967616436836" y2="1170.1340425858873"><stop stop-color="#FFFFFF"/><stop offset="1" stop-color="#FFFFFF"/></linearGradient></defs><g transform="translate(11.999999999999943 274.3693379790941) scale(0.6968641114982579 0.6968641114982579) translate(-355 -634) rotate(-12 1060.0 1000.0)"><path d="M729.00,758.00 L1678.00,758.00 L1678.00,759.00 L1685.00,759.00 L1685.00,760.00 L1689.00,760.00 L1689.00,761.00 L1693.00,761.00 L1693.00,762.00 L1702.00,764.00 L1702.00,765.00 L1704.00,765.00 L1704.00,766.00 L1706.00,766.00 L1706.00,767.00 L1708.00,767.00 L1708.00,768.00 L1714.00,770.00 L1714.00,771.00 L1717.00,772.00 L1718.00,774.00 L1720.00,774.00 L1722.00,777.00 L1724.00,777.00 L1724.00,778.00 L1738.00,791.00 L1738.00,793.00 L1741.00,795.00 L1741.00,797.00 L1742.00,797.00 L1743.00,800.00 L1745.00,801.00 L1745.00,803.00 L1746.00,803.00 L1746.00,805.00 L1747.00,805.00 L1747.00,807.00 L1748.00,807.00 L1748.00,809.00 L1749.00,809.00 L1749.00,811.00 L1750.00,811.00 L1750.00,813.00 L1751.00,813.00 L1751.00,816.00 L1752.00,816.00 L1752.00,819.00 L1753.00,819.00 L1753.00,822.00 L1754.00,822.00 L1754.00,826.00 L1755.00,826.00 L1755.00,830.00 L1756.00,830.00 L1756.00,837.00 L1757.00,837.00 L1757.00,1132.00 L1756.00,1132.00 L1756.00,1139.00 L1755.00,1139.00 L1755.00,1143.00 L1754.00,1143.00 L1754.00,1147.00 L1753.00,1147.00 L1751.00,1156.00 L1750.00,1156.00 L1750.00,1158.00 L1749.00,1158.00 L1749.00,1160.00 L1748.00,1160.00 L1748.00,1162.00 L1747.00,1162.00 L1745.00,1168.00 L1744.00,1168.00 L1743.00,1171.00 L1741.00,1172.00 L1741.00,1174.00 L1738.00,1176.00 L1738.00,1178.00 L1737.00,1178.00 L1724.00,1192.00 L1722.00,1192.00 L1720.00,1195.00 L1718.00,1195.00 L1718.00,1196.00 L1715.00,1197.00 L1714.00,1199.00 L1712.00,1199.00 L1712.00,1200.00 L1710.00,1200.00 L1710.00,1201.00 L1708.00,1201.00 L1708.00,1202.00 L1706.00,1202.00 L1706.00,1203.00 L1704.00,1203.00 L1704.00,1204.00 L1702.00,1204.00 L1702.00,1205.00 L1699.00,1205.00 L1699.00,1206.00 L1696.00,1206.00 L1696.00,1207.00 L1693.00,1207.00 L1693.00,1208.00 L1689.00,1208.00 L1689.00,1209.00 L1685.00,1209.00 L1685.00,1210.00 L1678.00,1210.00 L1678.00,1211.00 L729.00,1211.00 L729.00,1210.00 L722.00,1210.00 L722.00,1209.00 L718.00,1209.00 L718.00,1208.00 L714.00,1208.00 L714.00,1207.00 L705.00,1205.00 L705.00,1204.00 L703.00,1204.00 L703.00,1203.00 L701.00,1203.00 L701.00,1202.00 L699.00,1202.00 L699.00,1201.00 L693.00,1199.00 L693.00,1198.00 L690.00,1197.00 L689.00,1195.00 L687.00,1195.00 L685.00,1192.00 L683.00,1192.00 L683.00,1191.00 L669.00,1178.00 L669.00,1176.00 L666.00,1174.00 L666.00,1172.00 L665.00,1172.00 L664.00,1169.00 L662.00,1168.00 L662.00,1166.00 L661.00,1166.00 L661.00,1164.00 L660.00,1164.00 L660.00,1162.00 L659.00,1162.00 L659.00,1160.00 L658.00,1160.00 L658.00,1158.00 L657.00,1158.00 L657.00,1156.00 L656.00,1156.00 L656.00,1153.00 L655.00,1153.00 L655.00,1150.00 L654.00,1150.00 L654.00,1147.00 L653.00,1147.00 L653.00,1143.00 L652.00,1143.00 L652.00,1139.00 L651.00,1139.00 L651.00,1132.00 L650.00,1132.00 L650.00,837.00 L651.00,837.00 L651.00,830.00 L652.00,830.00 L652.00,826.00 L653.00,826.00 L653.00,822.00 L654.00,822.00 L656.00,813.00 L657.00,813.00 L657.00,811.00 L658.00,811.00 L658.00,809.00 L659.00,809.00 L659.00,807.00 L660.00,807.00 L662.00,801.00 L664.00,800.00 L664.00,798.00 L666.00,797.00 L666.00,795.00 L669.00,793.00 L669.00,791.00 L670.00,791.00 L683.00,777.00 L685.00,777.00 L687.00,774.00 L689.00,774.00 L689.00,773.00 L692.00,772.00 L693.00,770.00 L695.00,770.00 L695.00,769.00 L697.00,769.00 L697.00,768.00 L699.00,768.00 L699.00,767.00 L701.00,767.00 L701.00,766.00 L703.00,766.00 L703.00,765.00 L705.00,765.00 L705.00,764.00 L708.00,764.00 L708.00,763.00 L711.00,763.00 L711.00,762.00 L714.00,762.00 L714.00,761.00 L718.00,761.00 L718.00,760.00 L722.00,760.00 L722.00,759.00 L729.00,759.00 Z" transform="translate(0 32.0)" fill="#342538" opacity="0.3058823529411765" filter="url(#shadow0)"/><path d="M393.00,848.00 L686.00,848.00 L686.00,849.00 L689.00,849.00 L689.00,850.00 L691.00,850.00 L692.00,852.00 L695.00,853.00 L695.00,855.00 L697.00,856.00 L698.00,861.00 L699.00,861.00 L699.00,1152.00 L698.00,1152.00 L698.00,1155.00 L697.00,1155.00 L697.00,1157.00 L695.00,1158.00 L694.00,1161.00 L692.00,1161.00 L691.00,1163.00 L686.00,1164.00 L686.00,1165.00 L393.00,1165.00 L393.00,1164.00 L390.00,1164.00 L390.00,1163.00 L388.00,1163.00 L387.00,1161.00 L384.00,1160.00 L384.00,1158.00 L382.00,1157.00 L381.00,1152.00 L380.00,1152.00 L380.00,861.00 L381.00,861.00 L381.00,858.00 L382.00,858.00 L382.00,856.00 L384.00,855.00 L384.00,853.00 L387.00,852.00 L387.00,851.00 L390.00,850.00 L390.00,849.00 L393.00,849.00 Z" fill="url(#gradient1)" opacity="1.000000" fill-rule="evenodd"/><path d="M385.00,830.00 L670.00,830.00 L670.00,831.00 L673.00,831.00 L673.00,832.00 L675.00,832.00 L676.00,834.00 L679.00,835.00 L679.00,837.00 L681.00,838.00 L682.00,843.00 L683.00,843.00 L683.00,1128.00 L682.00,1128.00 L682.00,1131.00 L681.00,1131.00 L681.00,1133.00 L679.00,1134.00 L678.00,1137.00 L676.00,1137.00 L675.00,1139.00 L670.00,1140.00 L670.00,1141.00 L385.00,1141.00 L385.00,1140.00 L382.00,1140.00 L382.00,1139.00 L380.00,1139.00 L379.00,1137.00 L376.00,1136.00 L376.00,1134.00 L374.00,1133.00 L373.00,1128.00 L372.00,1128.00 L372.00,843.00 L373.00,843.00 L373.00,840.00 L374.00,840.00 L374.00,838.00 L376.00,837.00 L376.00,835.00 L379.00,834.00 L379.00,833.00 L382.00,832.00 L382.00,831.00 L385.00,831.00 Z" fill="url(#gradient2)" opacity="1.000000" fill-rule="evenodd"/><path d="M389.00,838.00 L671.00,838.00 L671.00,839.00 L675.00,840.00 L675.00,841.00 L678.00,843.00 L678.00,845.00 L679.00,845.00 L679.00,847.00 L680.00,847.00 L680.00,1124.00 L679.00,1124.00 L678.00,1128.00 L677.00,1128.00 L675.00,1131.00 L673.00,1131.00 L673.00,1132.00 L671.00,1132.00 L671.00,1133.00 L389.00,1133.00 L389.00,1132.00 L385.00,1131.00 L385.00,1130.00 L382.00,1128.00 L382.00,1126.00 L381.00,1126.00 L381.00,1124.00 L380.00,1124.00 L380.00,847.00 L381.00,847.00 L382.00,843.00 L383.00,843.00 L385.00,840.00 L389.00,839.00 Z" fill="url(#metal3)"/><path d="M382.00,853.00 L393.00,853.00 L393.00,854.00 L397.00,857.00 L397.00,1114.00 L396.00,1114.00 L393.00,1118.00 L382.00,1118.00 L382.00,1117.00 L378.00,1114.00 L378.00,857.00 L379.00,857.00 Z" fill="url(#gradient4)" opacity="1.000000" fill-rule="evenodd"/><path d="M398.00,847.00 L401.00,847.00 L401.00,848.00 L403.00,849.00 L403.00,1122.00 L402.00,1122.00 L401.00,1124.00 L398.00,1124.00 L398.00,1123.00 L396.00,1122.00 L396.00,849.00 L397.00,849.00 Z" fill="url(#gradient5)" opacity="1.000000" fill-rule="evenodd"/><path d="M402.00,839.00 L670.00,839.00 L670.00,840.00 L672.00,841.00 L672.00,843.00 L671.00,843.00 L670.00,845.00 L402.00,845.00 L402.00,844.00 L400.00,843.00 L400.00,841.00 L401.00,841.00 Z" fill="url(#gradient6)" opacity="0.823529" fill-rule="evenodd"/><path d="M401.00,1125.00 L672.00,1125.00 L672.00,1126.00 L673.00,1126.00 L673.00,1132.00 L672.00,1132.00 L672.00,1133.00 L401.00,1133.00 L401.00,1132.00 L400.00,1132.00 L400.00,1126.00 L401.00,1126.00 Z" fill="url(#gradient7)" opacity="0.745098" fill-rule="evenodd"/><path d="M502.00,889.00 L551.00,889.00 L551.00,890.00 L553.00,890.00 L553.00,891.00 L556.00,893.00 L556.00,895.00 L557.00,895.00 L557.00,940.00 L556.00,940.00 L556.00,942.00 L555.00,942.00 L553.00,945.00 L551.00,945.00 L551.00,946.00 L502.00,946.00 L502.00,945.00 L500.00,945.00 L500.00,944.00 L497.00,942.00 L497.00,940.00 L496.00,940.00 L496.00,895.00 L497.00,895.00 L497.00,893.00 L498.00,893.00 L500.00,890.00 L502.00,890.00 Z" fill="url(#gradient8)" opacity="1.000000" fill-rule="evenodd"/><path d="M505.00,897.00 L548.00,897.00 L548.00,898.00 L550.00,898.00 L550.00,900.00 L551.00,900.00 L551.00,906.00 L550.00,906.00 L550.00,908.00 L548.00,908.00 L548.00,909.00 L505.00,909.00 L505.00,908.00 L503.00,908.00 L503.00,906.00 L502.00,906.00 L502.00,900.00 L503.00,900.00 L503.00,898.00 L505.00,898.00 Z" fill="url(#gradient9)" opacity="1.000000" fill-rule="evenodd"/><path d="M504.00,940.00 L549.00,940.00 L549.00,941.00 L551.00,942.00 L551.00,944.00 L550.00,944.00 L549.00,946.00 L504.00,946.00 L504.00,945.00 L502.00,944.00 L502.00,942.00 L503.00,942.00 Z" fill="url(#gradient10)" opacity="1.000000" fill-rule="evenodd"/><path d="M502.00,1028.00 L551.00,1028.00 L551.00,1029.00 L553.00,1029.00 L553.00,1030.00 L556.00,1032.00 L556.00,1034.00 L557.00,1034.00 L557.00,1079.00 L556.00,1079.00 L556.00,1081.00 L555.00,1081.00 L553.00,1084.00 L551.00,1084.00 L551.00,1085.00 L502.00,1085.00 L502.00,1084.00 L500.00,1084.00 L500.00,1083.00 L497.00,1081.00 L497.00,1079.00 L496.00,1079.00 L496.00,1034.00 L497.00,1034.00 L497.00,1032.00 L498.00,1032.00 L500.00,1029.00 L502.00,1029.00 Z" fill="url(#gradient11)" opacity="1.000000" fill-rule="evenodd"/><path d="M505.00,1036.00 L548.00,1036.00 L548.00,1037.00 L550.00,1037.00 L550.00,1039.00 L551.00,1039.00 L551.00,1046.00 L550.00,1046.00 L550.00,1048.00 L548.00,1048.00 L548.00,1049.00 L505.00,1049.00 L505.00,1048.00 L503.00,1048.00 L503.00,1046.00 L502.00,1046.00 L502.00,1039.00 L503.00,1039.00 L503.00,1037.00 L505.00,1037.00 Z" fill="url(#gradient12)" opacity="1.000000" fill-rule="evenodd"/><path d="M503.00,1080.00 L550.00,1080.00 L550.00,1081.00 L551.00,1081.00 L551.00,1084.00 L550.00,1084.00 L550.00,1085.00 L503.00,1085.00 L503.00,1084.00 L502.00,1084.00 L502.00,1081.00 L503.00,1081.00 Z" fill="url(#gradient13)" opacity="1.000000" fill-rule="evenodd"/><path d="M654.00,814.00 L689.00,814.00 L689.00,815.00 L694.00,815.00 L694.00,816.00 L697.00,816.00 L697.00,817.00 L700.00,817.00 L700.00,818.00 L706.00,820.00 L706.00,821.00 L707.00,821.00 L708.00,823.00 L710.00,823.00 L710.00,824.00 L718.00,831.00 L718.00,833.00 L721.00,835.00 L721.00,837.00 L722.00,837.00 L722.00,839.00 L723.00,839.00 L723.00,841.00 L724.00,841.00 L725.00,847.00 L726.00,847.00 L726.00,852.00 L727.00,852.00 L727.00,1123.00 L726.00,1123.00 L726.00,1128.00 L725.00,1128.00 L724.00,1134.00 L723.00,1134.00 L721.00,1140.00 L718.00,1142.00 L718.00,1144.00 L717.00,1144.00 L710.00,1152.00 L708.00,1152.00 L706.00,1155.00 L704.00,1155.00 L704.00,1156.00 L702.00,1156.00 L702.00,1157.00 L700.00,1157.00 L700.00,1158.00 L694.00,1159.00 L694.00,1160.00 L689.00,1160.00 L689.00,1161.00 L654.00,1161.00 L654.00,1160.00 L649.00,1160.00 L649.00,1159.00 L646.00,1159.00 L646.00,1158.00 L643.00,1158.00 L643.00,1157.00 L637.00,1155.00 L637.00,1154.00 L636.00,1154.00 L635.00,1152.00 L633.00,1152.00 L633.00,1151.00 L625.00,1144.00 L625.00,1142.00 L622.00,1140.00 L622.00,1138.00 L621.00,1138.00 L621.00,1136.00 L620.00,1136.00 L620.00,1134.00 L619.00,1134.00 L618.00,1128.00 L617.00,1128.00 L617.00,1123.00 L616.00,1123.00 L616.00,852.00 L617.00,852.00 L617.00,847.00 L618.00,847.00 L619.00,841.00 L620.00,841.00 L622.00,835.00 L625.00,833.00 L625.00,831.00 L626.00,831.00 L633.00,823.00 L635.00,823.00 L637.00,820.00 L639.00,820.00 L639.00,819.00 L641.00,819.00 L641.00,818.00 L643.00,818.00 L643.00,817.00 L649.00,816.00 L649.00,815.00 L654.00,815.00 Z" fill="url(#gradient14)" opacity="1.000000" fill-rule="evenodd"/><path d="M729.00,758.00 L1678.00,758.00 L1678.00,759.00 L1685.00,759.00 L1685.00,760.00 L1689.00,760.00 L1689.00,761.00 L1693.00,761.00 L1693.00,762.00 L1702.00,764.00 L1702.00,765.00 L1704.00,765.00 L1704.00,766.00 L1706.00,766.00 L1706.00,767.00 L1708.00,767.00 L1708.00,768.00 L1714.00,770.00 L1715.00,772.00 L1717.00,772.00 L1718.00,774.00 L1720.00,774.00 L1722.00,777.00 L1724.00,777.00 L1724.00,778.00 L1738.00,791.00 L1738.00,793.00 L1741.00,795.00 L1741.00,797.00 L1742.00,797.00 L1743.00,800.00 L1745.00,801.00 L1745.00,803.00 L1746.00,803.00 L1746.00,805.00 L1747.00,805.00 L1747.00,807.00 L1748.00,807.00 L1748.00,809.00 L1749.00,809.00 L1749.00,811.00 L1750.00,811.00 L1750.00,813.00 L1751.00,813.00 L1751.00,815.00 L1752.00,815.00 L1754.00,824.00 L1755.00,824.00 L1756.00,832.00 L1757.00,832.00 L1757.00,835.00 L1758.00,835.00 L1758.00,839.00 L1759.00,839.00 L1759.00,843.00 L1760.00,843.00 L1762.00,855.00 L1763.00,855.00 L1763.00,858.00 L1764.00,858.00 L1764.00,862.00 L1765.00,862.00 L1765.00,866.00 L1766.00,866.00 L1766.00,870.00 L1767.00,870.00 L1767.00,874.00 L1768.00,874.00 L1768.00,881.00 L1769.00,881.00 L1769.00,1176.00 L1768.00,1176.00 L1768.00,1183.00 L1767.00,1183.00 L1767.00,1187.00 L1766.00,1187.00 L1766.00,1191.00 L1765.00,1191.00 L1763.00,1200.00 L1762.00,1200.00 L1762.00,1202.00 L1761.00,1202.00 L1761.00,1204.00 L1760.00,1204.00 L1760.00,1206.00 L1759.00,1206.00 L1757.00,1212.00 L1756.00,1212.00 L1755.00,1215.00 L1753.00,1216.00 L1753.00,1218.00 L1750.00,1220.00 L1750.00,1222.00 L1749.00,1222.00 L1736.00,1236.00 L1734.00,1236.00 L1732.00,1239.00 L1730.00,1239.00 L1730.00,1240.00 L1727.00,1241.00 L1726.00,1243.00 L1724.00,1243.00 L1724.00,1244.00 L1722.00,1244.00 L1722.00,1245.00 L1720.00,1245.00 L1720.00,1246.00 L1718.00,1246.00 L1718.00,1247.00 L1716.00,1247.00 L1716.00,1248.00 L1714.00,1248.00 L1714.00,1249.00 L1711.00,1249.00 L1711.00,1250.00 L1708.00,1250.00 L1708.00,1251.00 L1705.00,1251.00 L1705.00,1252.00 L1701.00,1252.00 L1701.00,1253.00 L1697.00,1253.00 L1697.00,1254.00 L1690.00,1254.00 L1690.00,1255.00 L741.00,1255.00 L741.00,1254.00 L734.00,1254.00 L734.00,1253.00 L730.00,1253.00 L730.00,1252.00 L726.00,1252.00 L726.00,1251.00 L717.00,1249.00 L717.00,1248.00 L715.00,1248.00 L715.00,1247.00 L713.00,1247.00 L713.00,1246.00 L711.00,1246.00 L711.00,1245.00 L705.00,1243.00 L704.00,1241.00 L702.00,1241.00 L701.00,1239.00 L699.00,1239.00 L697.00,1236.00 L695.00,1236.00 L695.00,1235.00 L681.00,1222.00 L681.00,1220.00 L678.00,1218.00 L678.00,1216.00 L677.00,1216.00 L676.00,1213.00 L674.00,1212.00 L674.00,1210.00 L673.00,1210.00 L673.00,1208.00 L672.00,1208.00 L672.00,1206.00 L671.00,1206.00 L671.00,1204.00 L670.00,1204.00 L670.00,1202.00 L669.00,1202.00 L669.00,1200.00 L668.00,1200.00 L668.00,1198.00 L667.00,1198.00 L665.00,1189.00 L664.00,1189.00 L663.00,1181.00 L662.00,1181.00 L662.00,1178.00 L661.00,1178.00 L661.00,1174.00 L660.00,1174.00 L660.00,1170.00 L659.00,1170.00 L657.00,1158.00 L656.00,1158.00 L656.00,1155.00 L655.00,1155.00 L655.00,1151.00 L654.00,1151.00 L654.00,1147.00 L653.00,1147.00 L653.00,1143.00 L652.00,1143.00 L652.00,1139.00 L651.00,1139.00 L651.00,1132.00 L650.00,1132.00 L650.00,837.00 L651.00,837.00 L651.00,830.00 L652.00,830.00 L652.00,826.00 L653.00,826.00 L653.00,822.00 L654.00,822.00 L656.00,813.00 L657.00,813.00 L657.00,811.00 L658.00,811.00 L658.00,809.00 L659.00,809.00 L659.00,807.00 L660.00,807.00 L662.00,801.00 L664.00,800.00 L664.00,798.00 L666.00,797.00 L666.00,795.00 L669.00,793.00 L669.00,791.00 L670.00,791.00 L683.00,777.00 L685.00,777.00 L687.00,774.00 L689.00,774.00 L689.00,773.00 L692.00,772.00 L693.00,770.00 L695.00,770.00 L695.00,769.00 L697.00,769.00 L697.00,768.00 L699.00,768.00 L699.00,767.00 L701.00,767.00 L701.00,766.00 L703.00,766.00 L703.00,765.00 L705.00,765.00 L705.00,764.00 L708.00,764.00 L708.00,763.00 L711.00,763.00 L711.00,762.00 L714.00,762.00 L714.00,761.00 L718.00,761.00 L718.00,760.00 L722.00,760.00 L722.00,759.00 L729.00,759.00 Z" fill="url(#gradient15)" opacity="1.000000" fill-rule="evenodd"/><path d="M729.00,758.00 L1678.00,758.00 L1678.00,759.00 L1685.00,759.00 L1685.00,760.00 L1689.00,760.00 L1689.00,761.00 L1693.00,761.00 L1693.00,762.00 L1702.00,764.00 L1702.00,765.00 L1704.00,765.00 L1704.00,766.00 L1706.00,766.00 L1706.00,767.00 L1708.00,767.00 L1708.00,768.00 L1714.00,770.00 L1714.00,771.00 L1717.00,772.00 L1718.00,774.00 L1720.00,774.00 L1722.00,777.00 L1724.00,777.00 L1724.00,778.00 L1738.00,791.00 L1738.00,793.00 L1741.00,795.00 L1741.00,797.00 L1742.00,797.00 L1743.00,800.00 L1745.00,801.00 L1745.00,803.00 L1746.00,803.00 L1746.00,805.00 L1747.00,805.00 L1747.00,807.00 L1748.00,807.00 L1748.00,809.00 L1749.00,809.00 L1749.00,811.00 L1750.00,811.00 L1750.00,813.00 L1751.00,813.00 L1751.00,816.00 L1752.00,816.00 L1752.00,819.00 L1753.00,819.00 L1753.00,822.00 L1754.00,822.00 L1754.00,826.00 L1755.00,826.00 L1755.00,830.00 L1756.00,830.00 L1756.00,837.00 L1757.00,837.00 L1757.00,1132.00 L1756.00,1132.00 L1756.00,1139.00 L1755.00,1139.00 L1755.00,1143.00 L1754.00,1143.00 L1754.00,1147.00 L1753.00,1147.00 L1751.00,1156.00 L1750.00,1156.00 L1750.00,1158.00 L1749.00,1158.00 L1749.00,1160.00 L1748.00,1160.00 L1748.00,1162.00 L1747.00,1162.00 L1745.00,1168.00 L1744.00,1168.00 L1743.00,1171.00 L1741.00,1172.00 L1741.00,1174.00 L1738.00,1176.00 L1738.00,1178.00 L1737.00,1178.00 L1724.00,1192.00 L1722.00,1192.00 L1720.00,1195.00 L1718.00,1195.00 L1718.00,1196.00 L1715.00,1197.00 L1714.00,1199.00 L1712.00,1199.00 L1712.00,1200.00 L1710.00,1200.00 L1710.00,1201.00 L1708.00,1201.00 L1708.00,1202.00 L1706.00,1202.00 L1706.00,1203.00 L1704.00,1203.00 L1704.00,1204.00 L1702.00,1204.00 L1702.00,1205.00 L1699.00,1205.00 L1699.00,1206.00 L1696.00,1206.00 L1696.00,1207.00 L1693.00,1207.00 L1693.00,1208.00 L1689.00,1208.00 L1689.00,1209.00 L1685.00,1209.00 L1685.00,1210.00 L1678.00,1210.00 L1678.00,1211.00 L729.00,1211.00 L729.00,1210.00 L722.00,1210.00 L722.00,1209.00 L718.00,1209.00 L718.00,1208.00 L714.00,1208.00 L714.00,1207.00 L705.00,1205.00 L705.00,1204.00 L703.00,1204.00 L703.00,1203.00 L701.00,1203.00 L701.00,1202.00 L699.00,1202.00 L699.00,1201.00 L693.00,1199.00 L693.00,1198.00 L690.00,1197.00 L689.00,1195.00 L687.00,1195.00 L685.00,1192.00 L683.00,1192.00 L683.00,1191.00 L669.00,1178.00 L669.00,1176.00 L666.00,1174.00 L666.00,1172.00 L665.00,1172.00 L664.00,1169.00 L662.00,1168.00 L662.00,1166.00 L661.00,1166.00 L661.00,1164.00 L660.00,1164.00 L660.00,1162.00 L659.00,1162.00 L659.00,1160.00 L658.00,1160.00 L658.00,1158.00 L657.00,1158.00 L657.00,1156.00 L656.00,1156.00 L656.00,1153.00 L655.00,1153.00 L655.00,1150.00 L654.00,1150.00 L654.00,1147.00 L653.00,1147.00 L653.00,1143.00 L652.00,1143.00 L652.00,1139.00 L651.00,1139.00 L651.00,1132.00 L650.00,1132.00 L650.00,837.00 L651.00,837.00 L651.00,830.00 L652.00,830.00 L652.00,826.00 L653.00,826.00 L653.00,822.00 L654.00,822.00 L656.00,813.00 L657.00,813.00 L657.00,811.00 L658.00,811.00 L658.00,809.00 L659.00,809.00 L659.00,807.00 L660.00,807.00 L662.00,801.00 L664.00,800.00 L664.00,798.00 L666.00,797.00 L666.00,795.00 L669.00,793.00 L669.00,791.00 L670.00,791.00 L683.00,777.00 L685.00,777.00 L687.00,774.00 L689.00,774.00 L689.00,773.00 L692.00,772.00 L693.00,770.00 L695.00,770.00 L695.00,769.00 L697.00,769.00 L697.00,768.00 L699.00,768.00 L699.00,767.00 L701.00,767.00 L701.00,766.00 L703.00,766.00 L703.00,765.00 L705.00,765.00 L705.00,764.00 L708.00,764.00 L708.00,763.00 L711.00,763.00 L711.00,762.00 L714.00,762.00 L714.00,761.00 L718.00,761.00 L718.00,760.00 L722.00,760.00 L722.00,759.00 L729.00,759.00 Z" fill="url(#gradient16)" opacity="1.000000" fill-rule="evenodd"/><path d="M732.00,770.00 L1675.00,770.00 L1675.00,771.00 L1682.00,771.00 L1682.00,772.00 L1686.00,772.00 L1686.00,773.00 L1693.00,774.00 L1693.00,775.00 L1695.00,775.00 L1695.00,776.00 L1698.00,776.00 L1698.00,777.00 L1700.00,777.00 L1700.00,778.00 L1706.00,780.00 L1706.00,781.00 L1709.00,782.00 L1710.00,784.00 L1712.00,784.00 L1714.00,787.00 L1716.00,787.00 L1716.00,788.00 L1728.00,799.00 L1728.00,801.00 L1731.00,803.00 L1731.00,805.00 L1733.00,806.00 L1733.00,808.00 L1735.00,809.00 L1735.00,811.00 L1736.00,811.00 L1736.00,813.00 L1737.00,813.00 L1737.00,815.00 L1738.00,815.00 L1738.00,817.00 L1739.00,817.00 L1739.00,820.00 L1740.00,820.00 L1741.00,825.00 L1742.00,825.00 L1743.00,833.00 L1744.00,833.00 L1744.00,840.00 L1745.00,840.00 L1745.00,1127.00 L1744.00,1127.00 L1744.00,1134.00 L1743.00,1134.00 L1743.00,1138.00 L1742.00,1138.00 L1741.00,1145.00 L1740.00,1145.00 L1740.00,1147.00 L1739.00,1147.00 L1739.00,1150.00 L1738.00,1150.00 L1738.00,1152.00 L1737.00,1152.00 L1735.00,1158.00 L1734.00,1158.00 L1733.00,1161.00 L1731.00,1162.00 L1731.00,1164.00 L1728.00,1166.00 L1728.00,1168.00 L1727.00,1168.00 L1716.00,1180.00 L1714.00,1180.00 L1712.00,1183.00 L1710.00,1183.00 L1709.00,1185.00 L1707.00,1185.00 L1706.00,1187.00 L1704.00,1187.00 L1704.00,1188.00 L1702.00,1188.00 L1702.00,1189.00 L1700.00,1189.00 L1700.00,1190.00 L1698.00,1190.00 L1698.00,1191.00 L1695.00,1191.00 L1695.00,1192.00 L1690.00,1193.00 L1690.00,1194.00 L1682.00,1195.00 L1682.00,1196.00 L1675.00,1196.00 L1675.00,1197.00 L732.00,1197.00 L732.00,1196.00 L725.00,1196.00 L725.00,1195.00 L721.00,1195.00 L721.00,1194.00 L714.00,1193.00 L714.00,1192.00 L712.00,1192.00 L712.00,1191.00 L709.00,1191.00 L709.00,1190.00 L707.00,1190.00 L707.00,1189.00 L701.00,1187.00 L701.00,1186.00 L698.00,1185.00 L697.00,1183.00 L695.00,1183.00 L693.00,1180.00 L691.00,1180.00 L691.00,1179.00 L679.00,1168.00 L679.00,1166.00 L676.00,1164.00 L676.00,1162.00 L674.00,1161.00 L674.00,1159.00 L672.00,1158.00 L672.00,1156.00 L671.00,1156.00 L671.00,1154.00 L670.00,1154.00 L670.00,1152.00 L669.00,1152.00 L669.00,1150.00 L668.00,1150.00 L668.00,1147.00 L667.00,1147.00 L666.00,1142.00 L665.00,1142.00 L664.00,1134.00 L663.00,1134.00 L663.00,1127.00 L662.00,1127.00 L662.00,840.00 L663.00,840.00 L663.00,833.00 L664.00,833.00 L664.00,829.00 L665.00,829.00 L665.00,825.00 L666.00,825.00 L666.00,822.00 L667.00,822.00 L667.00,820.00 L668.00,820.00 L668.00,817.00 L669.00,817.00 L669.00,815.00 L670.00,815.00 L672.00,809.00 L673.00,809.00 L674.00,806.00 L676.00,805.00 L676.00,803.00 L679.00,801.00 L679.00,799.00 L680.00,799.00 L691.00,787.00 L693.00,787.00 L695.00,784.00 L697.00,784.00 L697.00,783.00 L700.00,782.00 L701.00,780.00 L703.00,780.00 L703.00,779.00 L705.00,779.00 L705.00,778.00 L707.00,778.00 L707.00,777.00 L709.00,777.00 L709.00,776.00 L712.00,776.00 L712.00,775.00 L714.00,775.00 L714.00,774.00 L717.00,774.00 L717.00,773.00 L721.00,773.00 L721.00,772.00 L725.00,772.00 L725.00,771.00 L732.00,771.00 Z" fill="url(#gradient17)" opacity="1.000000" fill-rule="evenodd"/><path d="M784.00,838.00 L1621.00,838.00 L1621.00,839.00 L1630.00,840.00 L1630.00,841.00 L1635.00,842.00 L1635.00,843.00 L1639.00,844.00 L1640.00,846.00 L1642.00,846.00 L1644.00,849.00 L1646.00,849.00 L1646.00,850.00 L1652.00,855.00 L1652.00,857.00 L1655.00,859.00 L1655.00,861.00 L1657.00,862.00 L1657.00,864.00 L1658.00,864.00 L1658.00,866.00 L1659.00,866.00 L1659.00,869.00 L1660.00,869.00 L1661.00,875.00 L1662.00,875.00 L1662.00,880.00 L1663.00,880.00 L1663.00,1081.00 L1662.00,1081.00 L1661.00,1090.00 L1660.00,1090.00 L1659.00,1095.00 L1658.00,1095.00 L1657.00,1099.00 L1655.00,1100.00 L1655.00,1102.00 L1652.00,1104.00 L1652.00,1106.00 L1651.00,1106.00 L1646.00,1112.00 L1644.00,1112.00 L1642.00,1115.00 L1640.00,1115.00 L1639.00,1117.00 L1637.00,1117.00 L1637.00,1118.00 L1635.00,1118.00 L1635.00,1119.00 L1632.00,1119.00 L1632.00,1120.00 L1626.00,1121.00 L1626.00,1122.00 L1621.00,1122.00 L1621.00,1123.00 L784.00,1123.00 L784.00,1122.00 L775.00,1121.00 L775.00,1120.00 L770.00,1119.00 L770.00,1118.00 L766.00,1117.00 L765.00,1115.00 L763.00,1115.00 L761.00,1112.00 L759.00,1112.00 L759.00,1111.00 L753.00,1106.00 L753.00,1104.00 L750.00,1102.00 L750.00,1100.00 L748.00,1099.00 L748.00,1097.00 L747.00,1097.00 L747.00,1095.00 L746.00,1095.00 L746.00,1092.00 L745.00,1092.00 L744.00,1086.00 L743.00,1086.00 L743.00,1081.00 L742.00,1081.00 L742.00,880.00 L743.00,880.00 L743.00,875.00 L744.00,875.00 L744.00,871.00 L745.00,871.00 L745.00,869.00 L746.00,869.00 L746.00,866.00 L747.00,866.00 L748.00,862.00 L750.00,861.00 L750.00,859.00 L753.00,857.00 L753.00,855.00 L754.00,855.00 L759.00,849.00 L761.00,849.00 L763.00,846.00 L765.00,846.00 L766.00,844.00 L768.00,844.00 L768.00,843.00 L770.00,843.00 L770.00,842.00 L773.00,842.00 L773.00,841.00 L775.00,841.00 L775.00,840.00 L784.00,839.00 Z" fill="url(#gradient18)" opacity="0.521569" fill-rule="evenodd"/><path d="M713.00,788.00 L1684.00,788.00 L1684.00,789.00 L1687.00,789.00 L1687.00,790.00 L1689.00,790.00 L1690.00,792.00 L1692.00,792.00 L1693.00,795.00 L1695.00,796.00 L1696.00,801.00 L1697.00,801.00 L1697.00,808.00 L1696.00,808.00 L1696.00,811.00 L1695.00,811.00 L1695.00,813.00 L1693.00,814.00 L1693.00,816.00 L1690.00,817.00 L1690.00,818.00 L1687.00,819.00 L1687.00,820.00 L1684.00,820.00 L1684.00,821.00 L713.00,821.00 L713.00,820.00 L710.00,820.00 L710.00,819.00 L708.00,819.00 L707.00,817.00 L705.00,817.00 L704.00,814.00 L703.00,814.00 L702.00,811.00 L701.00,811.00 L701.00,808.00 L700.00,808.00 L700.00,801.00 L701.00,801.00 L702.00,796.00 L704.00,795.00 L705.00,792.00 L707.00,792.00 L708.00,790.00 L713.00,789.00 Z" fill="url(#gradient19)" opacity="0.666667" fill-rule="evenodd"/><path d="M743.00,1152.00 L1664.00,1152.00 L1664.00,1153.00 L1666.00,1153.00 L1666.00,1154.00 L1668.00,1155.00 L1668.00,1157.00 L1669.00,1157.00 L1669.00,1162.00 L1668.00,1162.00 L1668.00,1164.00 L1667.00,1164.00 L1666.00,1166.00 L1664.00,1166.00 L1664.00,1167.00 L743.00,1167.00 L743.00,1166.00 L741.00,1166.00 L741.00,1165.00 L739.00,1164.00 L739.00,1162.00 L738.00,1162.00 L738.00,1157.00 L739.00,1157.00 L739.00,1155.00 L740.00,1155.00 L741.00,1153.00 L743.00,1153.00 Z" fill="url(#gradient20)" opacity="0.490196" fill-rule="evenodd"/><path d="M1533.00,826.00 L1534.00,826.00 L1534.00,827.00 L1540.00,827.00 L1541.00,830.00 L1538.00,831.00 L1536.00,834.00 L1533.00,834.00 L1533.00,835.00 L1531.00,835.00 L1531.00,836.00 L1528.00,836.00 L1528.00,837.00 L1526.00,837.00 L1526.00,838.00 L1524.00,838.00 L1524.00,839.00 L1521.00,839.00 L1521.00,840.00 L1519.00,840.00 L1519.00,841.00 L1517.00,841.00 L1517.00,842.00 L1515.00,842.00 L1515.00,843.00 L1512.00,843.00 L1512.00,844.00 L1510.00,844.00 L1510.00,845.00 L1508.00,845.00 L1508.00,846.00 L1505.00,846.00 L1505.00,847.00 L1503.00,847.00 L1503.00,848.00 L1501.00,848.00 L1501.00,849.00 L1498.00,849.00 L1498.00,850.00 L1496.00,850.00 L1496.00,851.00 L1494.00,851.00 L1494.00,852.00 L1492.00,852.00 L1492.00,853.00 L1489.00,853.00 L1489.00,854.00 L1487.00,854.00 L1487.00,855.00 L1485.00,855.00 L1485.00,856.00 L1482.00,856.00 L1482.00,857.00 L1480.00,857.00 L1480.00,858.00 L1478.00,858.00 L1478.00,859.00 L1475.00,859.00 L1475.00,860.00 L1473.00,860.00 L1473.00,861.00 L1471.00,861.00 L1471.00,862.00 L1469.00,862.00 L1469.00,863.00 L1466.00,863.00 L1466.00,864.00 L1464.00,864.00 L1464.00,865.00 L1462.00,865.00 L1462.00,866.00 L1459.00,866.00 L1459.00,867.00 L1457.00,867.00 L1457.00,868.00 L1455.00,868.00 L1455.00,869.00 L1452.00,869.00 L1452.00,870.00 L1450.00,870.00 L1450.00,871.00 L1448.00,871.00 L1448.00,872.00 L1446.00,872.00 L1446.00,873.00 L1443.00,873.00 L1443.00,874.00 L1441.00,874.00 L1441.00,875.00 L1439.00,875.00 L1439.00,876.00 L1436.00,876.00 L1436.00,877.00 L1434.00,877.00 L1434.00,878.00 L1432.00,878.00 L1432.00,879.00 L1429.00,879.00 L1429.00,880.00 L1427.00,880.00 L1427.00,881.00 L1425.00,881.00 L1425.00,882.00 L1423.00,882.00 L1423.00,883.00 L1420.00,883.00 L1420.00,884.00 L1418.00,884.00 L1418.00,885.00 L1416.00,885.00 L1416.00,886.00 L1413.00,886.00 L1413.00,887.00 L1411.00,887.00 L1411.00,888.00 L1409.00,888.00 L1409.00,889.00 L1406.00,889.00 L1406.00,890.00 L1404.00,890.00 L1404.00,891.00 L1402.00,891.00 L1402.00,892.00 L1400.00,892.00 L1400.00,893.00 L1397.00,893.00 L1397.00,894.00 L1395.00,894.00 L1395.00,895.00 L1393.00,895.00 L1393.00,896.00 L1390.00,896.00 L1390.00,897.00 L1388.00,897.00 L1388.00,898.00 L1386.00,898.00 L1386.00,899.00 L1383.00,899.00 L1383.00,900.00 L1381.00,900.00 L1381.00,901.00 L1379.00,901.00 L1379.00,902.00 L1377.00,902.00 L1377.00,903.00 L1374.00,903.00 L1374.00,904.00 L1372.00,904.00 L1372.00,905.00 L1370.00,905.00 L1370.00,906.00 L1367.00,906.00 L1367.00,907.00 L1365.00,907.00 L1365.00,908.00 L1363.00,908.00 L1363.00,909.00 L1360.00,909.00 L1360.00,910.00 L1358.00,910.00 L1358.00,911.00 L1356.00,911.00 L1356.00,912.00 L1354.00,912.00 L1354.00,913.00 L1351.00,913.00 L1351.00,914.00 L1349.00,914.00 L1349.00,915.00 L1346.00,915.00 L1346.00,916.00 L1344.00,916.00 L1343.00,918.00 L1339.00,918.00 L1339.00,919.00 L1332.00,920.00 L1332.00,921.00 L1329.00,921.00 L1329.00,922.00 L1322.00,922.00 L1322.00,923.00 L1315.00,923.00 L1315.00,924.00 L1260.00,925.00 L1260.00,926.00 L1235.00,926.00 L1235.00,927.00 L1210.00,927.00 L1210.00,928.00 L1184.00,928.00 L1184.00,929.00 L1159.00,929.00 L1159.00,930.00 L1134.00,930.00 L1134.00,931.00 L1108.00,931.00 L1108.00,932.00 L1083.00,932.00 L1083.00,933.00 L1058.00,933.00 L1058.00,934.00 L1032.00,934.00 L1032.00,935.00 L982.00,936.00 L982.00,937.00 L956.00,937.00 L956.00,938.00 L931.00,938.00 L931.00,939.00 L906.00,939.00 L906.00,940.00 L880.00,940.00 L880.00,941.00 L855.00,941.00 L855.00,942.00 L830.00,942.00 L830.00,943.00 L804.00,943.00 L804.00,944.00 L779.00,944.00 L779.00,945.00 L754.00,945.00 L754.00,946.00 L703.00,947.00 L703.00,948.00 L695.00,948.00 L695.00,947.00 L693.00,947.00 L693.00,946.00 L688.00,945.00 L688.00,944.00 L686.00,943.00 L685.00,939.00 L684.00,939.00 L684.00,936.00 L683.00,936.00 L684.00,884.00 L685.00,884.00 L685.00,867.00 L686.00,867.00 L686.00,861.00 L687.00,861.00 L688.00,856.00 L689.00,856.00 L694.00,850.00 L697.00,850.00 L697.00,849.00 L699.00,849.00 L699.00,848.00 L706.00,848.00 L706.00,847.00 L830.00,845.00 L830.00,844.00 L871.00,844.00 L871.00,843.00 L912.00,843.00 L912.00,842.00 L953.00,842.00 L953.00,841.00 L994.00,841.00 L994.00,840.00 L1036.00,840.00 L1036.00,839.00 L1077.00,839.00 L1077.00,838.00 L1118.00,838.00 L1118.00,837.00 L1159.00,837.00 L1159.00,836.00 L1200.00,836.00 L1200.00,835.00 L1242.00,835.00 L1242.00,834.00 L1283.00,834.00 L1283.00,833.00 L1324.00,833.00 L1324.00,832.00 L1365.00,832.00 L1365.00,831.00 L1406.00,831.00 L1406.00,830.00 L1448.00,830.00 L1448.00,829.00 L1489.00,829.00 L1489.00,828.00 L1530.00,828.00 L1530.00,827.00 L1533.00,827.00 Z" fill="url(#gradient21)" opacity="0.145098" fill-rule="evenodd"/><path d="M1208.00,819.00 L1227.00,820.00 L1227.00,821.00 L1229.00,821.00 L1229.00,822.00 L1234.00,822.00 L1234.00,823.00 L1240.00,824.00 L1240.00,825.00 L1242.00,825.00 L1242.00,826.00 L1244.00,826.00 L1244.00,827.00 L1248.00,827.00 L1248.00,828.00 L1250.00,828.00 L1251.00,830.00 L1253.00,830.00 L1253.00,831.00 L1259.00,833.00 L1261.00,836.00 L1263.00,836.00 L1266.00,840.00 L1268.00,840.00 L1268.00,841.00 L1270.00,842.00 L1270.00,844.00 L1271.00,844.00 L1271.00,845.00 L1276.00,849.00 L1276.00,851.00 L1279.00,853.00 L1280.00,858.00 L1282.00,859.00 L1283.00,864.00 L1285.00,865.00 L1285.00,868.00 L1286.00,868.00 L1286.00,870.00 L1287.00,870.00 L1288.00,879.00 L1289.00,879.00 L1289.00,881.00 L1290.00,881.00 L1291.00,913.00 L1290.00,913.00 L1290.00,915.00 L1289.00,915.00 L1284.00,921.00 L1282.00,921.00 L1282.00,922.00 L1280.00,922.00 L1280.00,923.00 L1277.00,923.00 L1277.00,924.00 L1276.00,924.00 L1276.00,923.00 L1271.00,923.00 L1271.00,924.00 L1270.00,924.00 L1270.00,923.00 L1267.00,923.00 L1267.00,922.00 L1263.00,921.00 L1263.00,920.00 L1257.00,915.00 L1257.00,913.00 L1256.00,913.00 L1256.00,911.00 L1255.00,911.00 L1255.00,904.00 L1256.00,904.00 L1256.00,881.00 L1255.00,881.00 L1255.00,877.00 L1254.00,877.00 L1253.00,872.00 L1251.00,871.00 L1250.00,867.00 L1249.00,867.00 L1239.00,856.00 L1236.00,856.00 L1235.00,854.00 L1230.00,853.00 L1230.00,852.00 L1228.00,852.00 L1228.00,851.00 L1216.00,850.00 L1216.00,849.00 L1209.00,849.00 L1209.00,850.00 L1197.00,851.00 L1197.00,852.00 L1195.00,852.00 L1195.00,853.00 L1190.00,854.00 L1189.00,856.00 L1186.00,856.00 L1186.00,857.00 L1175.00,867.00 L1175.00,869.00 L1174.00,869.00 L1174.00,871.00 L1172.00,872.00 L1172.00,875.00 L1171.00,875.00 L1171.00,877.00 L1170.00,877.00 L1170.00,881.00 L1169.00,881.00 L1169.00,914.00 L1168.00,914.00 L1168.00,959.00 L1333.00,959.00 L1333.00,960.00 L1336.00,960.00 L1336.00,961.00 L1341.00,962.00 L1343.00,965.00 L1346.00,965.00 L1346.00,966.00 L1348.00,967.00 L1348.00,969.00 L1351.00,971.00 L1351.00,973.00 L1353.00,974.00 L1354.00,979.00 L1355.00,979.00 L1357.00,1028.00 L1358.00,1028.00 L1358.00,1046.00 L1359.00,1046.00 L1359.00,1064.00 L1360.00,1064.00 L1360.00,1082.00 L1361.00,1082.00 L1361.00,1086.00 L1360.00,1086.00 L1358.00,1095.00 L1355.00,1097.00 L1355.00,1099.00 L1354.00,1099.00 L1352.00,1102.00 L1350.00,1102.00 L1350.00,1103.00 L1349.00,1103.00 L1348.00,1105.00 L1346.00,1105.00 L1346.00,1106.00 L1343.00,1106.00 L1343.00,1107.00 L1340.00,1107.00 L1340.00,1108.00 L1085.00,1108.00 L1085.00,1107.00 L1079.00,1106.00 L1079.00,1105.00 L1077.00,1105.00 L1075.00,1102.00 L1073.00,1102.00 L1073.00,1101.00 L1070.00,1099.00 L1070.00,1097.00 L1067.00,1095.00 L1067.00,1093.00 L1066.00,1093.00 L1066.00,1089.00 L1065.00,1089.00 L1065.00,1086.00 L1064.00,1086.00 L1064.00,1082.00 L1065.00,1082.00 L1065.00,1064.00 L1066.00,1064.00 L1066.00,1046.00 L1067.00,1046.00 L1067.00,1028.00 L1068.00,1028.00 L1070.00,979.00 L1071.00,979.00 L1072.00,974.00 L1074.00,973.00 L1074.00,971.00 L1077.00,969.00 L1077.00,967.00 L1078.00,967.00 L1079.00,965.00 L1082.00,965.00 L1084.00,962.00 L1089.00,961.00 L1089.00,960.00 L1092.00,960.00 L1092.00,959.00 L1133.00,959.00 L1134.00,912.00 L1135.00,912.00 L1135.00,881.00 L1136.00,881.00 L1136.00,879.00 L1137.00,879.00 L1138.00,870.00 L1139.00,870.00 L1139.00,868.00 L1140.00,868.00 L1140.00,865.00 L1142.00,864.00 L1143.00,859.00 L1145.00,858.00 L1146.00,853.00 L1147.00,853.00 L1147.00,852.00 L1149.00,851.00 L1149.00,849.00 L1155.00,844.00 L1155.00,842.00 L1156.00,842.00 L1157.00,840.00 L1159.00,840.00 L1162.00,836.00 L1164.00,836.00 L1166.00,833.00 L1168.00,833.00 L1168.00,832.00 L1174.00,830.00 L1175.00,828.00 L1181.00,827.00 L1181.00,826.00 L1183.00,826.00 L1183.00,825.00 L1185.00,825.00 L1185.00,824.00 L1188.00,824.00 L1188.00,823.00 L1191.00,823.00 L1191.00,822.00 L1196.00,822.00 L1196.00,821.00 L1198.00,821.00 L1198.00,820.00 L1208.00,820.00 Z M1199.00,1023.00 L1200.00,1023.00 L1200.00,1026.00 L1202.00,1026.00 L1202.00,1027.00 L1204.00,1028.00 L1204.00,1051.00 L1205.00,1051.00 L1208.00,1055.00 L1217.00,1055.00 L1217.00,1054.00 L1221.00,1051.00 L1221.00,1028.00 L1222.00,1028.00 L1223.00,1026.00 L1225.00,1026.00 L1225.00,1023.00 L1226.00,1023.00 L1225.00,1013.00 L1223.00,1013.00 L1219.00,1008.00 L1216.00,1008.00 L1216.00,1007.00 L1206.00,1008.00 L1202.00,1013.00 L1200.00,1013.00 Z" fill="url(#gradient22)" opacity="0.980392" fill-rule="evenodd"/><path d="M1208.00,819.00 L1227.00,820.00 L1227.00,821.00 L1229.00,821.00 L1229.00,822.00 L1219.00,822.00 L1219.00,821.00 L1200.00,822.00 L1200.00,823.00 L1198.00,823.00 L1198.00,824.00 L1193.00,824.00 L1193.00,825.00 L1187.00,826.00 L1187.00,827.00 L1185.00,827.00 L1185.00,828.00 L1183.00,828.00 L1183.00,829.00 L1179.00,829.00 L1179.00,830.00 L1177.00,830.00 L1176.00,832.00 L1174.00,832.00 L1174.00,833.00 L1168.00,835.00 L1168.00,836.00 L1167.00,836.00 L1166.00,838.00 L1164.00,838.00 L1161.00,842.00 L1159.00,842.00 L1159.00,843.00 L1157.00,844.00 L1157.00,846.00 L1156.00,846.00 L1156.00,847.00 L1151.00,851.00 L1151.00,853.00 L1148.00,855.00 L1147.00,860.00 L1145.00,861.00 L1144.00,866.00 L1142.00,867.00 L1142.00,870.00 L1141.00,870.00 L1141.00,872.00 L1140.00,872.00 L1139.00,881.00 L1138.00,881.00 L1138.00,883.00 L1137.00,883.00 L1137.00,914.00 L1136.00,914.00 L1135.00,961.00 L1094.00,961.00 L1094.00,962.00 L1091.00,962.00 L1091.00,963.00 L1086.00,964.00 L1084.00,967.00 L1081.00,967.00 L1081.00,968.00 L1079.00,969.00 L1079.00,971.00 L1076.00,973.00 L1076.00,975.00 L1074.00,976.00 L1073.00,981.00 L1072.00,981.00 L1072.00,995.00 L1071.00,995.00 L1071.00,1013.00 L1070.00,1013.00 L1068.00,1066.00 L1067.00,1066.00 L1067.00,1084.00 L1066.00,1084.00 L1066.00,1088.00 L1067.00,1088.00 L1067.00,1091.00 L1068.00,1091.00 L1068.00,1095.00 L1067.00,1095.00 L1066.00,1089.00 L1065.00,1089.00 L1065.00,1086.00 L1064.00,1086.00 L1064.00,1082.00 L1065.00,1082.00 L1065.00,1064.00 L1066.00,1064.00 L1066.00,1046.00 L1067.00,1046.00 L1067.00,1028.00 L1068.00,1028.00 L1070.00,979.00 L1071.00,979.00 L1072.00,974.00 L1074.00,973.00 L1074.00,971.00 L1077.00,969.00 L1077.00,967.00 L1078.00,967.00 L1079.00,965.00 L1082.00,965.00 L1084.00,962.00 L1089.00,961.00 L1089.00,960.00 L1092.00,960.00 L1092.00,959.00 L1133.00,959.00 L1134.00,912.00 L1135.00,912.00 L1135.00,881.00 L1136.00,881.00 L1136.00,879.00 L1137.00,879.00 L1138.00,870.00 L1139.00,870.00 L1139.00,868.00 L1140.00,868.00 L1140.00,865.00 L1142.00,864.00 L1143.00,859.00 L1145.00,858.00 L1146.00,853.00 L1147.00,853.00 L1147.00,852.00 L1149.00,851.00 L1149.00,849.00 L1155.00,844.00 L1155.00,842.00 L1156.00,842.00 L1157.00,840.00 L1159.00,840.00 L1162.00,836.00 L1164.00,836.00 L1166.00,833.00 L1168.00,833.00 L1168.00,832.00 L1174.00,830.00 L1175.00,828.00 L1181.00,827.00 L1181.00,826.00 L1183.00,826.00 L1183.00,825.00 L1185.00,825.00 L1185.00,824.00 L1188.00,824.00 L1188.00,823.00 L1191.00,823.00 L1191.00,822.00 L1196.00,822.00 L1196.00,821.00 L1198.00,821.00 L1198.00,820.00 L1208.00,820.00 Z M1229.00,822.00 L1234.00,822.00 L1234.00,823.00 L1240.00,824.00 L1240.00,825.00 L1242.00,825.00 L1242.00,826.00 L1239.00,826.00 L1239.00,825.00 L1236.00,825.00 L1236.00,824.00 L1231.00,824.00 L1231.00,823.00 L1229.00,823.00 Z M1242.00,826.00 L1244.00,826.00 L1244.00,827.00 L1242.00,827.00 Z M1244.00,827.00 L1248.00,827.00 L1248.00,828.00 L1250.00,828.00 L1250.00,829.00 L1246.00,829.00 L1246.00,828.00 L1244.00,828.00 Z M1250.00,829.00 L1251.00,829.00 L1251.00,830.00 L1250.00,830.00 Z M1252.00,830.00 L1253.00,830.00 L1253.00,831.00 L1252.00,831.00 Z M1253.00,831.00 L1255.00,831.00 L1255.00,832.00 L1253.00,832.00 Z M1255.00,832.00 L1257.00,832.00 L1257.00,833.00 L1255.00,833.00 Z M1258.00,833.00 L1259.00,833.00 L1259.00,834.00 L1258.00,834.00 Z M1259.00,834.00 L1260.00,834.00 L1260.00,835.00 L1259.00,835.00 Z M1262.00,836.00 L1263.00,836.00 L1263.00,837.00 L1262.00,837.00 Z M1263.00,837.00 L1264.00,837.00 L1264.00,838.00 L1263.00,838.00 Z M1250.00,868.00 L1251.00,868.00 L1251.00,869.00 L1250.00,869.00 Z M1251.00,869.00 L1252.00,869.00 L1252.00,871.00 L1251.00,871.00 Z M1252.00,871.00 L1253.00,871.00 L1253.00,872.00 L1252.00,872.00 Z M1253.00,873.00 L1255.00,874.00 L1255.00,877.00 L1254.00,877.00 Z M1255.00,877.00 L1256.00,877.00 L1257.00,883.00 L1258.00,883.00 L1258.00,906.00 L1257.00,906.00 L1257.00,913.00 L1256.00,913.00 L1256.00,911.00 L1255.00,911.00 L1255.00,904.00 L1256.00,904.00 L1256.00,881.00 L1255.00,881.00 Z M1257.00,913.00 L1258.00,913.00 L1258.00,915.00 L1257.00,915.00 Z M1258.00,915.00 L1259.00,915.00 L1259.00,916.00 L1258.00,916.00 Z M1170.00,959.00 L1333.00,959.00 L1333.00,960.00 L1339.00,961.00 L1339.00,962.00 L1341.00,962.00 L1341.00,963.00 L1338.00,963.00 L1338.00,962.00 L1335.00,962.00 L1335.00,961.00 L1170.00,961.00 Z M1341.00,963.00 L1342.00,963.00 L1342.00,964.00 L1341.00,964.00 Z M1344.00,965.00 L1346.00,965.00 L1347.00,967.00 L1345.00,967.00 Z M1225.00,1015.00 L1227.00,1015.00 L1227.00,1018.00 L1228.00,1018.00 L1228.00,1025.00 L1227.00,1025.00 L1227.00,1028.00 L1225.00,1028.00 L1225.00,1029.00 L1223.00,1030.00 L1223.00,1053.00 L1222.00,1053.00 L1219.00,1057.00 L1210.00,1057.00 L1209.00,1055.00 L1217.00,1055.00 L1217.00,1054.00 L1221.00,1051.00 L1221.00,1028.00 L1222.00,1028.00 L1223.00,1026.00 L1225.00,1026.00 L1225.00,1023.00 L1226.00,1023.00 L1226.00,1016.00 L1225.00,1016.00 Z M1068.00,1095.00 L1069.00,1095.00 L1069.00,1096.00 L1068.00,1096.00 Z M1070.00,1098.00 L1071.00,1098.00 L1071.00,1099.00 L1070.00,1099.00 Z M1071.00,1099.00 L1072.00,1099.00 L1072.00,1100.00 L1071.00,1100.00 Z" fill="url(#gradient23)" opacity="0.341176" fill-rule="evenodd"/><path d="M1268.00,841.00 L1269.00,841.00 L1269.00,842.00 L1268.00,842.00 Z M1269.00,842.00 L1270.00,842.00 L1270.00,843.00 L1269.00,843.00 Z M1207.00,847.00 L1222.00,848.00 L1222.00,849.00 L1226.00,849.00 L1226.00,850.00 L1228.00,850.00 L1228.00,851.00 L1216.00,850.00 L1216.00,849.00 L1209.00,849.00 L1209.00,850.00 L1201.00,850.00 L1201.00,851.00 L1197.00,851.00 L1197.00,852.00 L1195.00,852.00 L1195.00,853.00 L1192.00,853.00 L1192.00,854.00 L1190.00,854.00 L1189.00,856.00 L1186.00,856.00 L1186.00,857.00 L1175.00,867.00 L1175.00,869.00 L1174.00,869.00 L1174.00,871.00 L1172.00,872.00 L1172.00,875.00 L1171.00,875.00 L1171.00,877.00 L1170.00,877.00 L1170.00,881.00 L1169.00,881.00 L1169.00,914.00 L1168.00,914.00 L1168.00,957.00 L1166.00,957.00 L1166.00,912.00 L1167.00,912.00 L1167.00,879.00 L1168.00,879.00 L1168.00,875.00 L1169.00,875.00 L1170.00,870.00 L1172.00,869.00 L1173.00,865.00 L1174.00,865.00 L1184.00,854.00 L1187.00,854.00 L1188.00,852.00 L1193.00,851.00 L1193.00,850.00 L1195.00,850.00 L1195.00,849.00 L1207.00,848.00 Z M1274.00,848.00 L1275.00,848.00 L1275.00,849.00 L1274.00,849.00 Z M1275.00,849.00 L1276.00,849.00 L1276.00,850.00 L1275.00,850.00 Z M1228.00,851.00 L1231.00,851.00 L1231.00,852.00 L1233.00,852.00 L1233.00,853.00 L1230.00,853.00 L1230.00,852.00 L1228.00,852.00 Z M1235.00,854.00 L1237.00,854.00 L1238.00,856.00 L1236.00,856.00 Z M1278.00,854.00 L1279.00,854.00 L1280.00,856.00 L1278.00,856.00 Z M1280.00,858.00 L1281.00,858.00 L1281.00,859.00 L1280.00,859.00 Z M1281.00,860.00 L1282.00,860.00 L1283.00,862.00 L1281.00,862.00 Z M1283.00,864.00 L1285.00,865.00 L1285.00,868.00 L1284.00,868.00 Z M1285.00,868.00 L1286.00,868.00 L1286.00,870.00 L1287.00,870.00 L1288.00,879.00 L1287.00,879.00 L1287.00,877.00 L1286.00,877.00 Z M1288.00,879.00 L1289.00,879.00 L1289.00,881.00 L1290.00,881.00 L1290.00,903.00 L1291.00,903.00 L1291.00,913.00 L1290.00,913.00 L1290.00,915.00 L1289.00,915.00 L1284.00,921.00 L1282.00,921.00 L1282.00,922.00 L1280.00,922.00 L1280.00,923.00 L1277.00,923.00 L1277.00,924.00 L1276.00,924.00 L1276.00,923.00 L1271.00,923.00 L1271.00,924.00 L1270.00,924.00 L1270.00,923.00 L1267.00,923.00 L1267.00,922.00 L1263.00,921.00 L1262.00,919.00 L1265.00,920.00 L1265.00,921.00 L1268.00,921.00 L1268.00,922.00 L1269.00,922.00 L1269.00,921.00 L1274.00,921.00 L1274.00,922.00 L1275.00,922.00 L1275.00,921.00 L1278.00,921.00 L1278.00,920.00 L1282.00,919.00 L1282.00,918.00 L1288.00,913.00 L1288.00,911.00 L1289.00,911.00 Z M1347.00,967.00 L1348.00,967.00 L1348.00,968.00 L1347.00,968.00 Z M1349.00,970.00 L1350.00,970.00 L1350.00,971.00 L1349.00,971.00 Z M1350.00,971.00 L1351.00,971.00 L1351.00,972.00 L1350.00,972.00 Z M1351.00,973.00 L1352.00,973.00 L1352.00,974.00 L1351.00,974.00 Z M1352.00,974.00 L1353.00,974.00 L1354.00,979.00 L1355.00,979.00 L1356.00,1011.00 L1357.00,1011.00 L1357.00,1028.00 L1358.00,1028.00 L1358.00,1046.00 L1359.00,1046.00 L1359.00,1064.00 L1360.00,1064.00 L1360.00,1082.00 L1361.00,1082.00 L1361.00,1086.00 L1360.00,1086.00 L1358.00,1095.00 L1355.00,1097.00 L1355.00,1099.00 L1354.00,1099.00 L1352.00,1102.00 L1350.00,1102.00 L1350.00,1103.00 L1349.00,1103.00 L1348.00,1105.00 L1346.00,1105.00 L1346.00,1106.00 L1343.00,1106.00 L1343.00,1107.00 L1340.00,1107.00 L1340.00,1108.00 L1085.00,1108.00 L1085.00,1107.00 L1082.00,1107.00 L1082.00,1106.00 L1079.00,1106.00 L1079.00,1105.00 L1076.00,1104.00 L1076.00,1103.00 L1077.00,1103.00 L1077.00,1104.00 L1080.00,1104.00 L1080.00,1105.00 L1083.00,1105.00 L1083.00,1106.00 L1338.00,1106.00 L1338.00,1105.00 L1344.00,1104.00 L1344.00,1103.00 L1346.00,1103.00 L1348.00,1100.00 L1350.00,1100.00 L1350.00,1099.00 L1353.00,1097.00 L1353.00,1095.00 L1354.00,1095.00 L1354.00,1094.00 L1356.00,1093.00 L1356.00,1091.00 L1357.00,1091.00 L1357.00,1087.00 L1358.00,1087.00 L1358.00,1084.00 L1359.00,1084.00 L1359.00,1080.00 L1358.00,1080.00 L1358.00,1062.00 L1357.00,1062.00 L1357.00,1044.00 L1356.00,1044.00 L1356.00,1026.00 L1355.00,1026.00 L1355.00,1009.00 L1354.00,1009.00 L1354.00,991.00 L1353.00,991.00 L1353.00,977.00 L1352.00,977.00 Z M1207.00,1005.00 L1214.00,1005.00 L1214.00,1006.00 L1217.00,1006.00 L1218.00,1008.00 L1216.00,1008.00 L1216.00,1007.00 L1206.00,1008.00 L1202.00,1013.00 L1200.00,1013.00 L1200.00,1016.00 L1199.00,1016.00 L1199.00,1023.00 L1200.00,1023.00 L1200.00,1024.00 L1198.00,1024.00 L1198.00,1021.00 L1197.00,1021.00 L1198.00,1011.00 L1200.00,1011.00 L1204.00,1006.00 L1207.00,1006.00 Z M1202.00,1028.00 L1204.00,1028.00 L1204.00,1050.00 L1202.00,1049.00 Z M1072.00,1100.00 L1073.00,1100.00 L1073.00,1101.00 L1072.00,1101.00 Z M1073.00,1101.00 L1074.00,1101.00 L1074.00,1102.00 L1073.00,1102.00 Z" fill="url(#gradient24)" opacity="0.666667" fill-rule="evenodd"/></g></svg>